<svg xmlns="http://www.w3.org/2000/svg" viewBox="0 0 56.3 59"><title>delete</title><g id="Layer_2" data-name="Layer 2"><g id="Layer_1-2" data-name="Layer 1"><g id="delete"><path d="M53.33,10.73H41.51a13.69,13.69,0,0,0-26.73,0H3a3,3,0,0,0,0,5.95H7.84l2.8,33.22a10,10,0,0,0,9.9,9.1H35.76a10,10,0,0,0,9.9-9.1l2.79-33.22h4.88a3,3,0,0,0,0-5.95ZM28.15,6a7.76,7.76,0,0,1,7.15,4.78H21A7.86,7.86,0,0,1,28.15,6ZM23.69,45.49h-.17a2.47,2.47,0,0,1-2.47-2.31L20.1,28.9a2.48,2.48,0,1,1,4.95-.33L26,42.86A2.45,2.45,0,0,1,23.69,45.49Zm11.56-2.3a2.48,2.48,0,0,1-2.47,2.31h-.17a2.47,2.47,0,0,1-2.31-2.63l1-14.29a2.46,2.46,0,0,1,2.63-2.31A2.48,2.48,0,0,1,36.2,28.9Z"/></g></g></g></svg>