<svg xmlns="http://www.w3.org/2000/svg" viewBox="0 0 58 58.5"><title>edit</title><g id="Layer_2" data-name="Layer 2"><g id="Layer_1-2" data-name="Layer 1"><g id="edit"><path d="M36.06,10.09,3.69,42.46a2,2,0,0,0-.53.92L.06,55.5A2,2,0,0,0,2,58a2.2,2.2,0,0,0,.5-.06l12.12-3.11a1.94,1.94,0,0,0,.92-.52L47.91,21.94Z"/><path d="M57.41,9.6l-9-9a2,2,0,0,0-2.82,0l-6,6L51.44,18.4l6-6A2,2,0,0,0,58,11,2,2,0,0,0,57.41,9.6Z"/><path d="M46.39,53.5H26.12a2.5,2.5,0,0,0,0,5H46.39a2.5,2.5,0,0,0,0-5Z"/></g></g></g></svg>