<svg xmlns="http://www.w3.org/2000/svg" viewBox="0 0 52.12 59"><title>logout</title><g id="Layer_2" data-name="Layer 2"><g id="Layer_1-2" data-name="Layer 1"><g id="logout"><path d="M41.3,0H10.82A10.83,10.83,0,0,0,0,10.82v8.85a3,3,0,0,0,5.9,0V10.82A4.93,4.93,0,0,1,10.82,5.9H41.3a4.93,4.93,0,0,1,4.92,4.92V48.18A4.93,4.93,0,0,1,41.3,53.1H10.82A4.93,4.93,0,0,1,5.9,48.18V39.33a2.95,2.95,0,0,0-5.9,0v8.85A10.83,10.83,0,0,0,10.82,59H41.3A10.83,10.83,0,0,0,52.12,48.18V10.82A10.83,10.83,0,0,0,41.3,0Z"/><path d="M0,29.5a3,3,0,0,0,3,3H27.79L21,39.21a3,3,0,0,0,4.17,4.18L37,31.59a3,3,0,0,0,0-4.18l-11.8-11.8A3,3,0,0,0,21,19.79l6.77,6.76H3A3,3,0,0,0,0,29.5Z"/></g></g></g></svg>