<svg height="504pt" viewBox="0 0 504 504.19548" width="504pt" xmlns="http://www.w3.org/2000/svg"><path d="m468.707031 138.976562c-.625 0-1.210937.152344-1.828125.183594-.011718-.394531-.050781-.785156-.117187-1.175781l-16.832031-54.835937c-.191407-.4375-.421876-.859376-.683594-1.257813 8.601562-6.191406 12.578125-16.992187 10.042968-27.285156-2.535156-10.292969-11.070312-18.011719-21.566406-19.5s-20.839844 3.550781-26.140625 12.730469c-.445312-.238282-.914062-.433594-1.398437-.585938l-17.015625-3.40625c-4.667969-.871094-9.167969 2.171875-10.097657 6.828125-.933593 4.652344 2.046876 9.191406 6.691407 10.1875l17.015625 3.40625c.507812.097656 1.023437.148437 1.539062.152344.691406 5.125 2.910156 9.921875 6.363282 13.773437-.371094.355469-.707032.746094-1.003907 1.167969l-52.589843 93.375c-.199219.460937-.355469.941406-.464844 1.433594-1.558594-.300781-3.140625-.460938-4.726563-.476563-6.25.019532-12.28125 2.308594-16.972656 6.4375-.34375-.363281-.722656-.699218-1.125-1l-14.988281-8.753906c-4.125-2.304688-9.339844-.882812-11.722656 3.199219-2.382813 4.082031-1.066407 9.320312 2.96875 11.785156l14.988281 8.753906c.425781.222657.871093.410157 1.328125.554688-2.175782 10.761719 2.710937 21.71875 12.167968 27.292969-.242187.441406-.441406.898437-.597656 1.371093l-13.277344 62.136719c-.03125.382812-.035156.769531-.011718 1.15625-7.890625.273438-15.445313 3.257812-21.394532 8.441406-.246093-.296875-.511718-.578125-.796874-.835937l-123.832032-86.695313c-.457031-.253906-.933594-.460937-1.425781-.621094 1.378906-4.289062 1.5-8.878906.355469-13.238281.464844-.160156.917968-.363281 1.347656-.605469l44.257812-28.109374c.292969-.246094.570313-.511719.828126-.796876 13.707031 13.058594 35.371093 12.636719 48.558593-.941406.242188.246094.5.472656.769531.6875l6.757813 3.949219c2.683594 1.636719 6.039063 1.695313 8.777344.160156 2.738281-1.539062 4.429687-4.4375 4.425781-7.578125s-1.703125-6.035156-4.445312-7.566406l-6.761719-3.949219c-.359375-.152343-.730469-.28125-1.109375-.378906 4.019531-12.949219-.160156-27.039063-10.585938-35.703125.25-.3125.476563-.640625.679688-.984375l21-42.171875c.109375-.324219.199218-.65625.269531-.996094 16.011719 3.65625 32.375-4.53125 39.050781-19.539062.992188.730468 2.128906 1.234375 3.332032 1.484375l17.019531 3.40625c.5625.113281 1.136719.171875 1.710937.167969 4.449219-.015626 8.167969-3.394532 8.605469-7.824219.433594-4.429688-2.550781-8.472657-6.910156-9.355469l-17.019531-3.410156c-1.21875-.242188-2.480469-.210938-3.6875.089844-.4375-15.902344-11.640626-29.460938-27.175782-32.890626-15.53125-3.433593-31.402344 4.148438-38.496094 18.386719-7.09375 14.234375-3.589843 31.472657 8.503907 41.808594-.265625.296875-.511719.609375-.730469.941406l-21.003906 42.171875c-.109375.324219-.199219.65625-.265625.996094-6.109375-1.4375-12.503907-1.070312-18.40625 1.058594-.113281-.378906-.253907-.75-.425781-1.105469l-9.308594-14.652344c-2.566406-4.046875-7.929688-5.246093-11.976563-2.675781s-5.242187 7.933594-2.675781 11.980469l9.3125 14.652343c.226562.3125.472656.609376.742188.890626-8.878907 9.171874-11.804688 22.578124-7.550782 34.613281-.378906.113281-.75.257812-1.105468.425781l-44.257813 28.113281c-.402344.316407-.773437.671875-1.105469 1.058594-6.351562-5.308594-14.921875-7.117187-22.875-4.824219-.152344-.5-.351562-.984375-.59375-1.449218l-9.621094-14.441407c-2.679687-3.9375-8.027343-4.980469-11.992187-2.339843-3.960937 2.640624-5.054687 7.984374-2.449219 11.96875l9.621094 14.441406c.3125.433594.664062.839844 1.046875 1.207031-2.03125 2.675781-3.523437 5.722656-4.386719 8.96875-.484375-.113281-.976562-.1875-1.472656-.21875l-78.277344 5.207031c-.460937.082032-.914062.207032-1.351562.367188-1.191406-2.789063-2.863282-5.347656-4.9375-7.5625.328125-.375.625-.777344.882812-1.203125l7.265625-13.507813c2.273438-4.222656.691407-9.484375-3.53125-11.757812-4.222656-2.269532-9.484375-.6875-11.753906 3.535156l-7.269531 13.507812c-.183594.457032-.328125.929688-.425782 1.410157-1.402343-.257813-2.824218-.398438-4.25-.425781-14.378906 0-26.0351558 11.65625-26.0351558 26.035156s11.6562498 26.03125 26.0351558 26.03125c2.59375-.035156 5.167969-.464844 7.636719-1.269532.164063.464844.367188.914063.613281 1.339844l33.757813 46.425782c.242187.335937.621094.476562.902344.765624-8.191407 9.746094-10.367188 23.203126-5.671875 35.035157 4.699218 11.835937 15.511718 20.132812 28.15625 21.609375 12.644531 1.472656 25.082031-4.113282 32.375-14.542969.285156.207031.582031.394531.890625.566406l56.144531 21.695313c.488281.132812.984375.222656 1.484375.269531 0 .3125-.085937.605469-.085937.921875-.085938 8.027344 3.574218 15.636719 9.898437 20.578125 6.328125 4.941406 14.597656 6.648437 22.363281 4.621094.136719.46875.3125.921875.53125 1.359375l45.296875 70.464844c.222657.300781.464844.589843.726563.859374-11.835938 12.316407-13.015625 31.390626-2.78125 45.070313 10.230468 13.679687 28.863281 17.9375 44.019531 10.058594 15.15625-7.875 22.382813-25.566407 17.070313-41.804688.367187-.128906.722656-.285156 1.066406-.464843l61.179687-37.660157c.394531-.308593.761719-.648437 1.09375-1.019531 7.652344 6.367188 18.273438 7.796875 27.335938 3.671875s14.960937-13.074219 15.183593-23.027344c.21875-9.953125-5.277343-19.15625-14.148437-23.675781 3.441406-.203125 6.429687-2.4375 7.601563-5.675781l5.828124-16.347657c1.042969-2.921874.445313-6.175781-1.5625-8.535156-2.007812-2.363281-5.125-3.476562-8.171874-2.917968-3.050782.558593-5.570313 2.703124-6.613282 5.621093l-5.828125 16.351563c-1.113281 3.167968-.296875 6.6875 2.097657 9.039062-5.140626-1.050781-10.484376-.527344-15.324219 1.503906-.199219-.421874-.433594-.824218-.699219-1.203124l-29.070312-32.714844c-.28125-.242188-.574219-.464844-.882813-.664063 5.660156-8.285156 7.4375-18.621093 4.871094-28.320312-2.5625-9.699219-9.21875-17.800781-18.234375-22.203125.175781-.363282.328125-.734375.453125-1.117188l13.277343-62.136718c.050782-.5.054688-1.007813.015626-1.507813 3.382812-.390625 6.65625-1.449219 9.625-3.113281.253906.417968.550781.8125.875 1.179687l9.425781 8.507813c2.289062 2.132812 5.554687 2.867187 8.539062 1.917968 2.988281-.949218 5.230469-3.433593 5.867188-6.5.640625-3.066406-.421875-6.238281-2.78125-8.300781l-9.421875-8.503906c-.382813-.273437-.789063-.515625-1.214844-.71875.957031-2.359375 1.5625-4.84375 1.796875-7.378906.519531-.007813 1.035156-.066407 1.542969-.171875l53.714844-12.410156c.363281-.136719.71875-.296876 1.058593-.480469 3.210938 6.242187 8.246094 11.359375 14.4375 14.671875-.207031.355468-.382812.722656-.527343 1.105468l-11.28125 45.210938c-.074219.511719-.097657 1.027344-.070313 1.539062-3.695313.300782-7.277344 1.390626-10.507813 3.203126-.257812-.417969-.550781-.816407-.878906-1.183594l-12.882812-11.628906c-2.292969-2.140626-5.5625-2.882813-8.550782-1.933594-2.992187.949218-5.238281 3.4375-5.875 6.507812-.636718 3.070313.429688 6.246094 2.796876 8.308594l12.886718 11.628906c.378906.277344.78125.523438 1.203125.734375-4.585937 10.746094-1.386719 23.230469 7.800781 30.445313-.296874.40625-.558593.839844-.78125 1.292968l-5.828124 16.347657c-1.609376 4.515625.746093 9.484375 5.261718 11.09375s9.480469-.746094 11.09375-5.261719l5.828125-16.347656c.109375-.457032.175781-.925782.203125-1.394532.132813 0 .253906.039063.386719.039063 11.53125.011719 21.691406-7.566406 24.964844-18.625 3.273437-11.054687-1.125-22.945313-10.804688-29.210937.238281-.429688.4375-.882813.59375-1.351563l11.28125-45.210937c.039063-.351563.054688-.707032.050781-1.058594 19.167969-.015625 34.699219-15.566406 34.6875-34.738282-.015624-19.167968-15.566406-34.699218-34.738281-34.6875zm-281.753906 190.796876-55.90625-21.601563c-.390625-.097656-.792969-.164063-1.195313-.203125 1.96875-11.820312-2.847656-23.75-12.46875-30.894531l4.328126-6.804688c1.753906-2.617187 1.957031-5.984375.519531-8.789062-1.433594-2.804688-4.28125-4.613281-7.429688-4.722657-3.152343-.105468-6.113281 1.503907-7.734375 4.207032l-4.34375 6.828125c-.34375.628906-.601562 1.300781-.769531 1.996093-6.492187-1.292968-13.21875-.628906-19.332031 1.90625-.128906-.335937-.277344-.660156-.445313-.972656l-33.757812-46.429687c-.316407-.34375-.660157-.660157-1.027344-.945313 1.726563-2.488281 3.003906-5.257812 3.773437-8.1875.296876.074219.601563.132813.90625.175782.195313 0 .390626-.011719.585938-.019532l78.273438-5.207031c.460937-.082031.914062-.207031 1.351562-.367187.96875 2.222656 2.242188 4.300781 3.789062 6.167968-.386718.332032-.742187.703125-1.058593 1.101563l-9.316407 14.640625c-2.574218 4.046875-1.382812 9.410156 2.664063 11.984375 4.042969 2.574219 9.40625 1.382812 11.980469-2.660157l9.316406-14.644531c.214844-.445312.394531-.90625.53125-1.382812 7.429688 1.917969 15.328125.339843 21.449219-4.289063.3125.390625.65625.757813 1.035156 1.085938l46.253906 32.382812-3.105469 14.855469c-.46875 2.25-.027343 4.597656 1.234376 6.523437 1.257812 1.925782 3.234374 3.269532 5.484374 3.738282.585938.125 1.183594.1875 1.785157.1875 4.105469-.007813 7.644531-2.886719 8.488281-6.90625l1.582031-7.570313 62.117188 43.484375c.316406.183594.644531.34375.984375.484375-1.34375 3.539063-2.09375 7.28125-2.222656 11.066407-.386719-.023438-.773438-.015626-1.15625.015624l-62.132813 13.277344c-.476563.15625-.9375.359375-1.375.597656-2.21875-3.6875-5.320313-6.769531-9.027344-8.960937.234375-.457031.429688-.9375.574219-1.429687l3.550781-16.992188c.976563-4.691406-2.03125-9.289062-6.726562-10.269531-4.691407-.976563-9.285157 2.035156-10.265625 6.726562l-3.550782 16.992188c-.054687.523437-.058593 1.050781-.007812 1.578125-6.5.800781-12.449219 4.039062-16.648438 9.0625-.492187-.324219-1.011718-.597656-1.554687-.816406zm188.574219 55.863281c.375.332031.78125.628906 1.214844.886719-3.308594 5.582031-4.316407 12.230468-2.804688 18.542968-.457031.125-.902344.285156-1.332031.488282l-61.179688 37.664062c-.261719.214844-.511719.449219-.746093.699219-2-1.90625-4.21875-3.5625-6.609376-4.941407.207032-.355468.382813-.726562.535157-1.105468l5.511719-18.746094 3.582031-12.175781c1.351562-4.597657-1.28125-9.421875-5.878907-10.773438-4.597656-1.355469-9.421874 1.277344-10.773437 5.875l-4.894531 16.644531-4.207032 14.273438c-.0625.398438-.097656.796875-.105468 1.199219-.460938-.019531-.898438-.140625-1.371094-.140625-3.753906.046875-7.476562.707031-11.019531 1.953125-.113281-.375-.257813-.742188-.425781-1.097657l-45.300782-70.464843c-.3125-.386719-.660156-.746094-1.039062-1.070313 2.957031-3.722656 4.824218-8.195312 5.394531-12.917968.515625-.003907 1.027344-.058594 1.53125-.164063l62.132813-13.277344c.378906-.128906.746093-.289062 1.101562-.476562 2.984375 6.035156 7.660156 11.070312 13.457031 14.492187-.214843.347656-.40625.707032-.570312 1.085938l-4.894531 16.652344c-.648438 2.207031-.394532 4.582031.707031 6.605468 1.105469 2.019532 2.964843 3.519532 5.175781 4.164063.792969.238281 1.617188.359375 2.449219.355469 3.847656 0 7.234375-2.535157 8.320312-6.226563l4.894531-16.652344c.0625-.398437.097657-.796875.105469-1.199219.464844.019532.902344.140626 1.371094.140626 5.578125-.039063 11.0625-1.433594 15.980469-4.066407.179687.367188.386718.726563.617187 1.066407zm58.539062-212.625c-.359375-.011719-.714844 0-1.070312.035156l-53.714844 12.410156c-.457031.160157-.898438.359375-1.320312.597657-.792969-1.261719-1.691407-2.457032-2.6875-3.566407.351562-.386719.667968-.800781.941406-1.246093l52.589844-93.375c.199218-.460938.355468-.941407.464843-1.433594 1.300781.230468 2.613281.363281 3.929688.394531.007812.476563.054687.953125.140625 1.421875l16.835937 54.835938c.152344.367187.328125.722656.527344 1.0625-10.125 6.136718-16.402344 17.027343-16.636719 28.863281zm0 0"/><path d="m216.953125 50.203125c.21875 0 .445313-.007813.671875-.027344l51.664062-3.964843v-8.679688l-.75-8.652344-52.238281 3.992188c-.46875.089844-.925781.21875-1.371093.386718-4.871094-11.355468-17.054688-17.722656-29.160157-15.238281-12.105469 2.488281-20.792969 13.144531-20.789062 25.5.035156 1.164063.152343 2.328125.347656 3.476563-.496094.085937-.984375.214844-1.453125.386718l-49.898438 24.90625c-.328124.21875-.640624.460938-.929687.726563-8.367187-9.800781-21.488281-14.136719-34.046875-11.253906-12.558594 2.882812-22.472656 12.507812-25.730469 24.972656-3.253906 12.46875.691407 25.710937 10.238281 34.367187-.277343.285157-.53125.59375-.761718.917969l-8.222656 15.289063c-2.273438 4.21875-.691407 9.484375 3.53125 11.753906 4.222656 2.269531 9.484374.6875 11.753906-3.535156l8.226562-15.289063c.136719-.363281.25-.734375.335938-1.113281 6.625 1.84375 13.667968 1.507812 20.085937-.953125.128907.386719.28125.761719.460938 1.125l6.804687 10.214844c2.65625 3.988281 8.046875 5.066406 12.035156 2.410156 3.992188-2.660156 5.070313-8.050781 2.410157-12.039063l-6.800781-10.210937c-.261719-.308594-.550782-.59375-.859376-.855469 7.671876-8.257812 10.75-19.78125 8.214844-30.761718.34375-.054688.679688-.136719 1.015625-.238282l49.898438-24.90625c.394531-.253906.765625-.546875 1.109375-.867187 6.363281 6.402343 15.640625 8.957031 24.386718 6.710937.136719.480469.316407.945313.539063 1.390625l.195313.304688c1.542968 2.4375 4.230468 3.914062 7.117187 3.90625 3.214844 0 6.171875-1.761719 7.699219-4.59375 1.53125-2.828125 1.382812-6.269531-.382813-8.957031-.316406-.398438-.667969-.761719-1.050781-1.089844 2.292969-2.847656 3.953125-6.144532 4.878906-9.679688.269532.070313.546875.125.824219.167969zm0 0"/><path d="m229.960938 201.039062-3.527344 16.988282c-.976563 4.695312 2.035156 9.289062 6.726562 10.265625.585938.113281 1.179688.171875 1.777344.171875 4.109375-.003906 7.652344-2.890625 8.488281-6.914063l3.527344-16.992187c.691406-3.058594-.320313-6.253906-2.652344-8.355469-2.328125-2.101563-5.609375-2.78125-8.582031-1.78125s-5.171875 3.527344-5.757812 6.609375zm0 0"/></svg>