<svg xmlns="http://www.w3.org/2000/svg" viewBox="0 0 57.99 58"><title>rocket</title><g id="Layer_2" data-name="Layer 2"><g id="Layer_1-2" data-name="Layer 1"><g id="rocket"><path d="M19.84,50l-3.76,3.76a2.5,2.5,0,1,0,3.54,3.53l3.76-3.76A2.5,2.5,0,0,0,19.84,50Z"/><path d="M8,38.15a2.5,2.5,0,0,0-3.54-3.53L.73,38.38a2.5,2.5,0,1,0,3.54,3.53Z"/><path d="M15.7,42.29a2.49,2.49,0,0,0-3.53,0L3.61,50.85a2.5,2.5,0,0,0,0,3.54,2.53,2.53,0,0,0,1.77.73,2.49,2.49,0,0,0,1.76-.73l8.56-8.56A2.5,2.5,0,0,0,15.7,42.29Z"/><path d="M48.44,33.21v0h0c7.41-8.6,11.08-20.13,9-31.38A1.49,1.49,0,0,0,56.2.59C45-1.52,33.42,2.16,24.82,9.57h0L13.15,7.25a2.5,2.5,0,0,0-2.25.69L1.23,17.6a2.5,2.5,0,0,0,1.1,4.18L13.73,25h0a35.33,35.33,0,0,0-1.43,4.21,1.51,1.51,0,0,0,.39,1.46L27.38,45.3a1.46,1.46,0,0,0,1.06.44,1.31,1.31,0,0,0,.39-.05A35.33,35.33,0,0,0,33,44.26h0l3.16,11.41A2.5,2.5,0,0,0,38,57.41a2.28,2.28,0,0,0,.63.09,2.47,2.47,0,0,0,1.77-.74l9.67-9.66a2.51,2.51,0,0,0,.68-2.26ZM35,15.94A5,5,0,1,1,35,23,5,5,0,0,1,35,15.94Z"/></g></g></g></svg>